{
  "accessors": [
    {
      "name": "Cylinder-Mesh_0_positions",
      "componentType": 5126,
      "count": 530,
      "min": [
        -0.8314700126647949,
        -1.48027503490448,
        0.2201090008020401
      ],
      "max": [
        0.8314700126647949,
        -0.48374199867248535,
        0.5078139901161194
      ],
      "type": "VEC3",
      "bufferView": 0,
      "byteOffset": 0
    },
    {
      "name": "Cylinder-Mesh_0_normals",
      "componentType": 5126,
      "count": 530,
      "min": [
        -0.9951865673065186,
        -0.9951865673065186,
        -1
      ],
      "max": [
        0.9951865673065186,
        0.9951865673065186,
        1
      ],
      "type": "VEC3",
      "bufferView": 1,
      "byteOffset": 0
    },
    {
      "name": "Cylinder-Mesh_0_texcoords",
      "componentType": 5126,
      "count": 530,
      "min": [
        0,
        0
      ],
      "max": [
        1,
        0.48739001154899597
      ],
      "type": "VEC2",
      "bufferView": 2,
      "byteOffset": 0
    },
    {
      "name": "Cylinder-Mesh_0_indices",
      "componentType": 5123,
      "count": 936,
      "min": [
        0
      ],
      "max": [
        529
      ],
      "type": "SCALAR",
      "bufferView": 3,
      "byteOffset": 0
    },
    {
      "name": "Cylinder-Mesh_1_positions",
      "componentType": 5126,
      "count": 288,
      "min": [
        -1,
        -1,
        -0.23895800113677979
      ],
      "max": [
        1,
        1,
        0.23895800113677979
      ],
      "type": "VEC3",
      "bufferView": 0,
      "byteOffset": 6360
    },
    {
      "name": "Cylinder-Mesh_1_normals",
      "componentType": 5126,
      "count": 288,
      "min": [
        -0.9951865673065186,
        -0.9951865673065186,
        -1
      ],
      "max": [
        0.9951865673065186,
        0.9951865673065186,
        0
      ],
      "type": "VEC3",
      "bufferView": 1,
      "byteOffset": 6360
    },
    {
      "name": "Cylinder-Mesh_1_texcoords",
      "componentType": 5126,
      "count": 288,
      "min": [
        0,
        0
      ],
      "max": [
        1,
        0.9734969735145569
      ],
      "type": "VEC2",
      "bufferView": 2,
      "byteOffset": 4240
    },
    {
      "name": "Cylinder-Mesh_1_indices",
      "componentType": 5123,
      "count": 474,
      "min": [
        0
      ],
      "max": [
        287
      ],
      "type": "SCALAR",
      "bufferView": 3,
      "byteOffset": 1872
    },
    {
      "name": "Cylinder-Mesh_2_positions",
      "componentType": 5126,
      "count": 311,
      "min": [
        -1,
        -1.4199270009994507,
        0.23895800113677979
      ],
      "max": [
        1,
        1,
        0.37282198667526245
      ],
      "type": "VEC3",
      "bufferView": 0,
      "byteOffset": 9816
    },
    {
      "name": "Cylinder-Mesh_2_normals",
      "componentType": 5126,
      "count": 311,
      "min": [
        -1,
        -1,
        -1
      ],
      "max": [
        1,
        0.9951865673065186,
        1
      ],
      "type": "VEC3",
      "bufferView": 1,
      "byteOffset": 9816
    },
    {
      "name": "Cylinder-Mesh_2_texcoords",
      "componentType": 5126,
      "count": 311,
      "min": [
        0,
        0
      ],
      "max": [
        1,
        0
      ],
      "type": "VEC2",
      "bufferView": 2,
      "byteOffset": 6544
    },
    {
      "name": "Cylinder-Mesh_2_indices",
      "componentType": 5123,
      "count": 801,
      "min": [
        0
      ],
      "max": [
        310
      ],
      "type": "SCALAR",
      "bufferView": 3,
      "byteOffset": 2820
    },
    {
      "name": "Cylinder-Mesh_3_positions",
      "componentType": 5126,
      "count": 3705,
      "min": [
        -0.6596429944038391,
        -1.9567400217056274,
        0.2201090008020401
      ],
      "max": [
        0.6632170081138611,
        -1.021077036857605,
        0.3799790143966675
      ],
      "type": "VEC3",
      "bufferView": 0,
      "byteOffset": 13548
    },
    {
      "name": "Cylinder-Mesh_3_normals",
      "componentType": 5126,
      "count": 3705,
      "min": [
        -0.9951865673065186,
        -0.9951865673065186,
        -1
      ],
      "max": [
        0.9951865673065186,
        0.9951865673065186,
        1
      ],
      "type": "VEC3",
      "bufferView": 1,
      "byteOffset": 13548
    },
    {
      "name": "Cylinder-Mesh_3_texcoords",
      "componentType": 5126,
      "count": 3705,
      "min": [
        0,
        0
      ],
      "max": [
        1,
        1
      ],
      "type": "VEC2",
      "bufferView": 2,
      "byteOffset": 9032
    },
    {
      "name": "Cylinder-Mesh_3_indices",
      "componentType": 5123,
      "count": 8175,
      "min": [
        0
      ],
      "max": [
        3704
      ],
      "type": "SCALAR",
      "bufferView": 3,
      "byteOffset": 4424
    },
    {
      "name": "Cylinder-Mesh_4_positions",
      "componentType": 5126,
      "count": 236,
      "min": [
        -1,
        -1.1818970441818237,
        0.2201090008020401
      ],
      "max": [
        1,
        0.8314700126647949,
        0.5691919922828674
      ],
      "type": "VEC3",
      "bufferView": 0,
      "byteOffset": 58008
    },
    {
      "name": "Cylinder-Mesh_4_normals",
      "componentType": 5126,
      "count": 236,
      "min": [
        -0.9978853464126587,
        -1,
        0
      ],
      "max": [
        0.9977124333381653,
        1,
        1
      ],
      "type": "VEC3",
      "bufferView": 1,
      "byteOffset": 58008
    },
    {
      "name": "Cylinder-Mesh_4_texcoords",
      "componentType": 5126,
      "count": 236,
      "min": [
        0.09375,
        0
      ],
      "max": [
        0.90625,
        0
      ],
      "type": "VEC2",
      "bufferView": 2,
      "byteOffset": 38672
    },
    {
      "name": "Cylinder-Mesh_4_indices",
      "componentType": 5123,
      "count": 462,
      "min": [
        0
      ],
      "max": [
        235
      ],
      "type": "SCALAR",
      "bufferView": 3,
      "byteOffset": 20776
    },
    {
      "name": "Cylinder-Mesh_5_positions",
      "componentType": 5126,
      "count": 82,
      "min": [
        -0.7199199795722961,
        -0.4857630133628845,
        0.45074400305747986
      ],
      "max": [
        0.7199199795722961,
        0.7680990099906921,
        0.5078139901161194
      ],
      "type": "VEC3",
      "bufferView": 0,
      "byteOffset": 60840
    },
    {
      "name": "Cylinder-Mesh_5_normals",
      "componentType": 5126,
      "count": 82,
      "min": [
        -0.9978853464126587,
        -1,
        0
      ],
      "max": [
        0.9978853464126587,
        1,
        1
      ],
      "type": "VEC3",
      "bufferView": 1,
      "byteOffset": 60840
    },
    {
      "name": "Cylinder-Mesh_5_texcoords",
      "componentType": 5126,
      "count": 82,
      "min": [
        0.3004930019378662,
        0
      ],
      "max": [
        0.7081170082092285,
        0
      ],
      "type": "VEC2",
      "bufferView": 2,
      "byteOffset": 40560
    },
    {
      "name": "Cylinder-Mesh_5_indices",
      "componentType": 5123,
      "count": 144,
      "min": [
        0
      ],
      "max": [
        81
      ],
      "type": "SCALAR",
      "bufferView": 3,
      "byteOffset": 21700
    },
    {
      "name": "Cylinder.001-Mesh_0_positions",
      "componentType": 5126,
      "count": 1414,
      "min": [
        -0.38992801308631897,
        -0.27911698818206787,
        0.3323560059070587
      ],
      "max": [
        0.38992801308631897,
        0.5007389783859253,
        2.0986480712890625
      ],
      "type": "VEC3",
      "bufferView": 0,
      "byteOffset": 61824
    },
    {
      "name": "Cylinder.001-Mesh_0_normals",
      "componentType": 5126,
      "count": 1414,
      "min": [
        -0.989712655544281,
        -1,
        -1
      ],
      "max": [
        0.989712655544281,
        1,
        0.9995909333229065
      ],
      "type": "VEC3",
      "bufferView": 1,
      "byteOffset": 61824
    },
    {
      "name": "Cylinder.001-Mesh_0_texcoords",
      "componentType": 5126,
      "count": 1414,
      "min": [
        0,
        0
      ],
      "max": [
        1,
        0.9900000095367432
      ],
      "type": "VEC2",
      "bufferView": 2,
      "byteOffset": 41216
    },
    {
      "name": "Cylinder.001-Mesh_0_indices",
      "componentType": 5123,
      "count": 2280,
      "min": [
        0
      ],
      "max": [
        1413
      ],
      "type": "SCALAR",
      "bufferView": 3,
      "byteOffset": 21988
    }
  ],
  "asset": {
    "generator": "obj2gltf",
    "version": "2.0"
  },
  "buffers": [
    {
      "name": "potmeter",
      "byteLength": 236660,
      "uri": "data:application/octet-stream;base64,"
    }
  ],
  "bufferViews": [
    {
      "name": "bufferView_0",
      "buffer": 0,
      "byteLength": 78792,
      "byteOffset": 0,
      "byteStride": 12,
      "target": 34962
    },
    {
      "name": "bufferView_1",
      "buffer": 0,
      "byteLength": 78792,
      "byteOffset": 78792,
      "byteStride": 12,
      "target": 34962
    },
    {
      "name": "bufferView_2",
      "buffer": 0,
      "byteLength": 52528,
      "byteOffset": 157584,
      "byteStride": 8,
      "target": 34962
    },
    {
      "name": "bufferView_3",
      "buffer": 0,
      "byteLength": 26548,
      "byteOffset": 210112,
      "target": 34963
    }
  ],
  "materials": [
    {
      "name": "Material.001",
      "pbrMetallicRoughness": {
        "baseColorFactor": [
          0.8,
          0.8,
          0.8,
          1
        ],
        "metallicFactor": 0,
        "roughnessFactor": 0.775
      },
      "emissiveFactor": [
        0,
        0,
        0
      ],
      "alphaMode": "OPAQUE",
      "doubleSided": false
    },
    {
      "name": "Material.002",
      "pbrMetallicRoughness": {
        "baseColorFactor": [
          0.8,
          0.8,
          0.8,
          1
        ],
        "metallicFactor": 0,
        "roughnessFactor": 0.676000006
      },
      "emissiveFactor": [
        0,
        0,
        0
      ],
      "alphaMode": "OPAQUE",
      "doubleSided": false
    },
    {
      "name": "Material.003",
      "pbrMetallicRoughness": {
        "baseColorFactor": [
          0.073236,
          0.01388,
          0.004486,
          1
        ],
        "metallicFactor": 0,
        "roughnessFactor": 1
      },
      "emissiveFactor": [
        0,
        0,
        0
      ],
      "alphaMode": "OPAQUE",
      "doubleSided": false
    },
    {
      "name": "Material.004",
      "pbrMetallicRoughness": {
        "baseColorFactor": [
          0.8,
          0.8,
          0.8,
          1
        ],
        "metallicFactor": 0,
        "roughnessFactor": 0.676000006
      },
      "emissiveFactor": [
        0,
        0,
        0
      ],
      "alphaMode": "OPAQUE",
      "doubleSided": false
    },
    {
      "name": "Material.006",
      "pbrMetallicRoughness": {
        "baseColorFactor": [
          0.080012,
          0.080012,
          0.080012,
          1
        ],
        "metallicFactor": 0,
        "roughnessFactor": 0.775
      },
      "emissiveFactor": [
        0,
        0,
        0
      ],
      "alphaMode": "OPAQUE",
      "doubleSided": false
    },
    {
      "name": "Material.007",
      "pbrMetallicRoughness": {
        "baseColorFactor": [
          0.015995,
          0.015995,
          0.015995,
          1
        ],
        "metallicFactor": 0,
        "roughnessFactor": 0.7390532569999999
      },
      "emissiveFactor": [
        0,
        0,
        0
      ],
      "alphaMode": "OPAQUE",
      "doubleSided": false
    },
    {
      "name": "Material.005",
      "pbrMetallicRoughness": {
        "baseColorFactor": [
          0.054969,
          0.054969,
          0.054969,
          1
        ],
        "metallicFactor": 0,
        "roughnessFactor": 0.910479284
      },
      "emissiveFactor": [
        0,
        0,
        0
      ],
      "alphaMode": "OPAQUE",
      "doubleSided": false
    }
  ],
  "meshes": [
    {
      "name": "Cylinder-Mesh",
      "primitives": [
        {
          "attributes": {
            "POSITION": 0,
            "NORMAL": 1,
            "TEXCOORD_0": 2
          },
          "indices": 3,
          "material": 0,
          "mode": 4
        },
        {
          "attributes": {
            "POSITION": 4,
            "NORMAL": 5,
            "TEXCOORD_0": 6
          },
          "indices": 7,
          "material": 1,
          "mode": 4
        },
        {
          "attributes": {
            "POSITION": 8,
            "NORMAL": 9,
            "TEXCOORD_0": 10
          },
          "indices": 11,
          "material": 2,
          "mode": 4
        },
        {
          "attributes": {
            "POSITION": 12,
            "NORMAL": 13,
            "TEXCOORD_0": 14
          },
          "indices": 15,
          "material": 3,
          "mode": 4
        },
        {
          "attributes": {
            "POSITION": 16,
            "NORMAL": 17,
            "TEXCOORD_0": 18
          },
          "indices": 19,
          "material": 4,
          "mode": 4
        },
        {
          "attributes": {
            "POSITION": 20,
            "NORMAL": 21,
            "TEXCOORD_0": 22
          },
          "indices": 23,
          "material": 5,
          "mode": 4
        }
      ]
    },
    {
      "name": "Cylinder.001-Mesh",
      "primitives": [
        {
          "attributes": {
            "POSITION": 24,
            "NORMAL": 25,
            "TEXCOORD_0": 26
          },
          "indices": 27,
          "material": 6,
          "mode": 4
        }
      ]
    }
  ],
  "nodes": [
    {
      "name": "Cylinder",
      "mesh": 0
    },
    {
      "name": "Cylinder.001",
      "mesh": 1
    }
  ],
  "scene": 0,
  "scenes": [
    {
      "nodes": [
        0,
        1
      ]
    }
  ]
}
